<?xml version="1.0" encoding="UTF-8"?><svg xmlns="http://www.w3.org/2000/svg" viewBox="0 0 3721.87 869.64"><defs><style>.c{letter-spacing:.21em;}.d{letter-spacing:-.02em;}.e{fill:none;stroke:#f2b12e;stroke-miterlimit:10;stroke-width:75px;}.f{fill:#f2b12e;}.g{fill:#3285b0;}.h{fill:#3999d5;}.i,.j{fill:#3b99d4;}.k{letter-spacing:.24em;}.l{letter-spacing:.24em;}.m{letter-spacing:-.05em;}.n{letter-spacing:0em;}.o{letter-spacing:0em;}.p{fill:#f2b12b;}.p,.j{font-family:LeagueSpartan-Bold, League Spartan;font-size:400px;}.q{letter-spacing:0em;}.r{letter-spacing:.15em;}</style></defs><g id="a"/><g id="b"><path class="g" d="M150.31,816.91l-.5,1.26s.77-.88,.76-.89-.26-.37-.26-.37Z"/><path class="e" d="M282.3,615.37c-6.91-12.35-6.99-28.67-8.42-42.43-1.69-16.31-3.03-32.84-2.15-49.24,1.65-30.76,9.87-61.65,22.82-89.56,24.54-52.92,69.76-94.55,122.59-118.53,57.03-25.9,121.64-26.58,180.36-5.61,54.81,19.57,100.05,58.95,128.37,109.66,30.14,53.96,36.69,114.94,25.06,175.15-1.19,6.14-2.72,12.39-5.9,17.84"/><path class="f" d="M876.84,177.05c-19.19,25.69-38.34,51.42-57.58,77.07-28.12,37.49-56.34,74.9-84.44,112.41-3.88,5.18-7.13,7.01-11.91,.7-11.31-14.92-24.64-27.95-39.41-39.44-6.06-4.71-1.5-6.55,1.77-9.04,24.98-19.01,49.91-38.1,74.96-57.02,33.6-25.38,67.28-50.65,100.95-75.94,4.67-3.51,9.5-6.81,14.26-10.21,.46,.49,.93,.98,1.39,1.47Z"/><path class="f" d="M1028.69,537.49c-19.28,5.57-37.19,6.75-54.79,9.34-57.73,8.49-115.57,16.22-173.37,24.25-.34,.05-.68,.11-1.02,.16q-16.8,2.61-15.8-14.52c.89-15.22,.56-30.42-.76-45.6-.56-6.39,1.07-8.24,8.06-7.24,57.77,8.31,115.62,16.12,173.43,24.18,20.78,2.9,41.51,6.07,64.26,9.41Z"/><path class="f" d="M515.15,26.47c2.66,17.57,5.45,35.12,7.95,52.71,7.19,50.56,14.4,101.12,21.26,151.72,1.39,10.25,1.76,20.64,3.99,30.8,1.04,4.75,.7,7.84-5.92,7.25-17.92-1.62-35.94-1.32-53.84,.1-9.12,.73-9.31-3.43-8.32-10.32,7.95-55.34,15.72-110.71,23.56-166.07,3.12-22.07,6.27-44.13,9.4-66.2,.64,0,1.28,0,1.92,0Z"/><path class="f" d="M157.28,182.96c3.77-1.9,5.79,.1,8.02,1.78,37.22,28.07,74.47,56.1,111.71,84.15,21.52,16.2,42.93,32.55,64.63,48.52,5.8,4.27,7.49,6.85,.74,12.19-13.84,10.96-26.53,23.36-37.3,37.35-4.8,6.23-6.77,4.5-10.44-.39-18.66-24.87-37.55-49.56-56.29-74.36-26.89-35.57-53.72-71.18-80.54-106.8-.36-.48-.29-1.28-.51-2.43Z"/><path class="f" d="M.68,537.11c67.06-9.32,134.11-18.65,201.17-27.98,11.97-1.67,24.01-2.99,35.87-5.2,6.2-1.16,8.54,.42,7.89,6.57-.07,.69-.08,1.38-.16,2.07-1.05,9.55,2.11,21.61-3.73,28-6.02,6.58-18.31,2.67-27.8,3.88-11.99,1.52-24.25,2.28-35.83,5.44-26.4,7.21-52.47,8.32-79.55,3.27-32.56-6.07-65.59-9.69-98.41-14.37,.18-.56,.36-1.13,.55-1.69Z"/><path class="f" d="M369.29,147.13c13.76,25.42,27.65,51.16,41.62,76.86,8.23,15.15,16.37,30.36,25,45.28,3.97,6.86,1.85,9.66-4.99,11.83-8.53,2.7-16.85,6.08-25.14,9.47-4.11,1.68-6.68,2.68-8-3.36-10.01-45.91-20.34-91.75-30.53-137.62-.2-.92-.25-2.17,2.04-2.46Z"/><path class="f" d="M906.34,392.16c-20.2,11.07-40.39,22.15-60.59,33.2-21.18,11.58-42.5,22.9-63.47,34.84-6.51,3.71-9.29,1.87-10.77-4.44-1.75-7.45-4.48-14.53-7.91-21.32-3.9-7.72-3.38-11.76,6.7-13.88,45.18-9.51,90.19-19.86,135.26-29.9,.26,.5,.53,1,.79,1.5Z"/><path class="f" d="M685.64,158.79c-1.47,18.62-8.15,35.61-13.09,53.02-7.64,26.93-16.04,53.65-23.78,80.56-1.92,6.67-3.89,9.75-11.24,5.46-7.43-4.34-15.34-8.1-23.45-10.94-6.61-2.31-7.05-4.9-3.53-10.34,16.72-25.82,33.24-51.77,49.78-77.7,8.49-13.32,16.87-26.71,25.29-40.07Z"/><path class="f" d="M137.13,365c25.77,7.55,51.55,15.09,77.31,22.67,17.22,5.07,34.36,10.44,51.67,15.2,7.93,2.18,12.71,4.3,6.82,13.65-4.17,6.63-7.02,14.22-9.58,21.69-2.25,6.57-5.29,6.95-10.61,3.54-24.4-15.66-48.9-31.18-73.36-46.75-14.48-9.21-28.96-18.42-43.44-27.63,.4-.79,.79-1.58,1.19-2.37Z"/><g><g><path class="h" d="M573.76,517.54c.07,.1,.08,.21,.05,.33,.27,1.05-.65,2.34,.64,3.18,.02,.22,.04,.45,.06,.67,.47,.41-2.49,1.46,.27,1.43,.11,.7,.22,1.4,.33,2.1-2.64,1.38-2.77,2.94-.38,4.62,.28,.19,.54,.42,.8,.62,.29,3.36,.42,6.72,.48,10.09,.02,1.25-.52,2.38-.48,3.61-1.22,.45-.22,.93-.01,1.4l.03,.71c-.12,.25-.28,.49-.34,.75-.42,1.82-.05,3.74-.73,5.53-.09,4.07-1.37,7.89-2.71,11.64-2.18,6.1-5.13,11.82-9.11,17-5.52,7.2-12.32,12.77-20.49,16.74-10.9,5.29-22.36,7.25-34.4,6.33-8.14-.62-15.88-2.69-23.17-6.31-5.78-2.87-10.86-6.77-15.15-11.62-3.64-4.11-6.75-8.59-9.11-13.58-.27-.57-.68-1.1-.63-1.78,.44-1.41,.62-2.67-1-3.59-.42-.24-.45-1.14-.69-1.73-.54-1.33-.48-2.94-1.77-3.94h0c-.07-.52,.25-1.17-.53-1.41-1.05-3.82-1.85-7.69-2.25-11.63-.12-1.12,.41-2.25,.24-3.28-.51-2.98-.08-5.95-.26-8.91-.09-1.49,.78-2.81,.45-4.44-.29-1.42-.89-3.43,1.48-4.12,.12-.04,.22-.28,.26-.44,.52-1.94,1.87-2.47,3.71-2.27,.32,.03,.77,.13,.91-.29,.16-.49-.28-.74-.62-.93-.29-.16-.69-.13-1.01-.26-.62-.24-1.35-.28-1.35-1.3,0-1.01,.68-1.15,1.32-1.32,1.34-.36,2.25-1.21,2.57-2.48,.36-1.42,1.26-1.82,2.54-1.82,1.99,0,3.98-.02,5.96,0,2.06,.03,2.57,.5,2.7,2.54,.05,.79,.02,1.71,1.09,1.61,1.09-.1,2.7,.84,3.12-.96,.42-1.79,1.84-1.82,3.07-1.99,1.27-.17,1.47,1.04,1.82,1.97,.43,1.13,2.87,1.61,3.27,.58,.56-1.46,1.65-1.88,2.79-2.66,1.38-.95,1.33-.23,1.62,.61,.17,.48,.35,1.31,.94,.89,.98-.71,2.35-.73,3.09-1.46,1.31-1.29,1.3-.17,1.59,.58,.19,.48,.37,1.3,.95,.87,.97-.73,2.36-.72,3.09-1.46,1.36-1.37,1.28-.07,1.57,.61,.21,.47,.39,1.29,.97,.84,.96-.76,2.35-.72,3.09-1.46,1.14-1.14,1.22-.35,1.52,.47,.19,.52,.35,1.47,1.02,.97,.98-.73,2.35-.7,3.09-1.45,1.18-1.2,1.22-.24,1.51,.5,.2,.51,.32,1.45,1.04,.95,.94-.66,2.24-.7,2.94-1.37,1.32-1.27,1.4-.33,1.69,.61,.16,.51,.41,1.24,1.01,.76,.91-.74,2.24-.7,2.93-1.38,1.37-1.34,1.38-.21,1.67,.64,.16,.45,.43,1.15,.86,.8,.99-.8,2.41-.78,3.23-1.56,1.07-1.01,1.13-.34,1.43,.44,.19,.49,.31,1.54,.96,1.09,1.04-.71,2.42-.75,3.24-1.54,1.1-1.07,1.12-.24,1.42,.47,.2,.49,.28,1.52,.98,1.07,1.01-.64,2.35-.73,3.09-1.45,1.28-1.24,1.31-.24,1.6,.56,.17,.48,.36,1.31,.94,.88,.98-.72,2.36-.73,3.09-1.46,1.33-1.32,1.29-.13,1.58,.59,.19,.48,.38,1.3,.96,.86,.97-.74,2.36-.72,3.09-1.46,1.38-1.4,1.27-.03,1.56,.62,.21,.47,.4,1.29,.98,.83,.96-.77,2.35-.72,3.09-1.46,1.16-1.16,1.22-.31,1.51,.48,.19,.51,.35,1.47,1.03,.96,.98-.73,2.35-.7,3.09-1.46,1.2-1.22,1.27-.22,1.49,.52,.31,1.06,.63,1.39,1.66,.57,1.01-.8,2.71-1.76,3.43-1.56,2.26,.64,4.37,.29,6.55,.07Z"/><path class="h" d="M573.76,517.54c-2.18,.22-4.29,.58-6.55-.07-.72-.2-2.42,.76-3.43,1.56-1.03,.82-1.35,.49-1.66-.57-.21-.74-.29-1.74-1.49-.52-.74,.75-2.11,.72-3.09,1.46-.68,.51-.83-.45-1.03-.96-.29-.79-.35-1.65-1.51-.48-.74,.74-2.13,.69-3.09,1.46-.58,.46-.76-.36-.98-.83-.3-.65-.19-2.02-1.56-.62-.73,.74-2.12,.71-3.09,1.46-.58,.44-.77-.38-.96-.86-.29-.73-.25-1.92-1.58-.59-.73,.73-2.11,.74-3.09,1.46-.58,.43-.77-.4-.94-.88-.29-.81-.32-1.81-1.6-.56-.74,.72-2.08,.81-3.09,1.45-.7,.45-.78-.58-.98-1.07-.29-.71-.32-1.54-1.42-.47-.82,.79-2.2,.83-3.24,1.54-.65,.45-.77-.6-.96-1.09-.3-.78-.36-1.45-1.43-.44-.82,.78-2.24,.76-3.23,1.56-.43,.34-.71-.35-.86-.8-.29-.85-.31-1.98-1.67-.64-.69,.68-2.02,.64-2.93,1.38-.59,.48-.85-.25-1.01-.76-.29-.93-.37-1.88-1.69-.61-.7,.67-1.99,.71-2.94,1.37-.72,.5-.84-.44-1.04-.95-.29-.74-.32-1.7-1.51-.5-.74,.75-2.11,.73-3.09,1.45-.68,.5-.83-.46-1.02-.97-.29-.82-.37-1.61-1.52-.47-.74,.74-2.13,.7-3.09,1.46-.58,.45-.77-.36-.97-.84-.29-.68-.21-1.98-1.57-.61-.73,.74-2.12,.72-3.09,1.46-.58,.44-.77-.39-.95-.87-.29-.75-.28-1.88-1.59-.58-.73,.72-2.11,.75-3.09,1.46-.58,.42-.77-.41-.94-.89-.29-.84-.24-1.56-1.62-.61-1.14,.78-2.23,1.2-2.79,2.66-.4,1.03-2.84,.55-3.27-.58-.35-.92-.56-2.14-1.82-1.97-1.23,.17-2.66,.2-3.07,1.99-.42,1.8-2.03,.86-3.12,.96-1.07,.1-1.04-.82-1.09-1.61-.13-2.04-.64-2.51-2.7-2.54-1.99-.03-3.98,0-5.96,0-1.28,0-2.18,.4-2.54,1.82-.32,1.27-1.24,2.12-2.57,2.48-.64,.17-1.33,.32-1.32,1.32,0,1.02,.73,1.06,1.35,1.3,.32,.13,.71,.1,1.01,.26,.34,.18,.78,.43,.62,.93-.14,.42-.59,.33-.91,.29-1.83-.2-3.19,.34-3.71,2.27-.04,.16-.14,.41-.26,.44-2.37,.69-1.76,2.7-1.48,4.12,.33,1.62-.55,2.94-.45,4.44,.18,2.96-.25,5.94,.26,8.91,.18,1.02-.35,2.16-.24,3.28-.97-6.69-.81-13.39-.1-20.09,1.65-15.43,6.43-29.99,12.59-44.13,6.54-15.03,14.73-29.19,22.93-43.35,2.72-4.69,5.46-9.37,8.4-13.92,4.92-7.61,9.44-15.48,14.91-22.78,3.08,4.34,6.18,8.73,9.29,13.1,3.95,5.54,7.97,11.03,11.72,16.7,10.21,15.49,20.59,30.91,28.64,47.68,5.14,10.7,9.01,21.91,11.52,33.55-.31,.26-.32,.61-.24,.95,.07,.27,.23,.15,.36,0,.31,.32,.33,.71,.26,1.13Zm-119.76,9.37c-.06,.1-.15,.18-.15,.27,0,.09,.08,.18,.12,.27,.05-.08,.14-.17,.15-.25,0-.09-.07-.18-.12-.29Z"/></g><path class="h" d="M575.54,530.5c-.27-.21-.53-.43-.8-.62-2.39-1.68-2.27-3.24,.38-4.62,.31,1.74,.69,3.46,.43,5.25Z"/><path class="h" d="M456.26,561.75c1.28,1,1.23,2.61,1.77,3.94,.24,.59,.27,1.49,.69,1.73,1.62,.92,1.44,2.19,1,3.59-1.65-2.9-2.81-5.99-3.46-9.26Z"/><path class="h" d="M574.49,552.58c.68-1.79,.3-3.71,.73-5.53,.06-.26,.22-.5,.34-.75,.04,2.16,.18,4.34-1.06,6.28Z"/><path class="h" d="M574.45,521.04c-1.29-.84-.37-2.13-.64-3.18,.42,1.02,.63,2.08,.64,3.18Z"/><path class="h" d="M574.78,523.15c-2.76,.03,.2-1.03-.27-1.43,.33,.43,.37,.92,.27,1.43Z"/><path class="h" d="M575.53,545.59c-.21-.47-1.21-.94,.01-1.4v1.4Z"/><path class="h" d="M455.73,560.33c.78,.24,.46,.9,.53,1.41-.46-.36-.35-.94-.53-1.41Z"/><path class="h" d="M573.5,516.41c-.13,.14-.29,.26-.36,0-.08-.34-.08-.69,.24-.95,.04,.32,.08,.64,.12,.95Z"/><path class="h" d="M454,526.91c.05,.1,.13,.2,.12,.29,0,.09-.1,.17-.15,.25-.04-.09-.12-.18-.12-.27,0-.09,.09-.17,.15-.27Z"/></g><path class="i" d="M733.78,652.39c-1.02-1.01-2.03-2.03-3.05-3.04-.51-.49-1.02-.98-1.54-1.46h.01c-.04-.97-.08-1.94-.11-2.91,8.36,3,15.92,7.29,22.15,13.74,7.88,8.16,8.12,16.42,.09,24.42-9.65,9.62-22,14.74-34.58,19.18-33.08,11.68-67.43,17.19-102.13,21.21-41.21,4.78-82.54,6.6-123.97,5.31-50.94-1.59-101.67-5.69-151.29-18.09-19.92-4.98-39.81-10.65-56.9-22.86-11.81-8.44-14.01-17.34-6.55-27.48,5.21,14.1,17.45,19.4,29.83,24.03,32.44,12.12,66.4,17.17,100.6,21.02,36.46,4.1,73.07,5.94,109.69,5.37,57.22-.89,114.28-4.38,169.97-19.19,14.31-3.81,28.5-8.22,40.91-16.75,9.38-6.45,11.26-11.61,8.06-20.8,1.62-1.98-.45-1.37-1.19-1.69Z"/><path class="i" d="M367.72,645.32c-3.2,5.63-.82,9.58,4,12.58,9.74,6.06,20.66,9.02,31.72,11.24,53.99,10.85,108.55,12.07,163.32,9.14,27.33-1.46,54.47-4.23,80.9-11.93,5.96-1.73,11.32-4.76,17.74-7.82-1.05,6.82-5.51,9.67-9.82,12.26-16.95,10.2-36.06,13.39-55.18,16.2-36.59,5.36-73.46,6.75-110.35,5.52-37.34-1.25-74.67-3.41-110.5-15.72-6.7-2.3-13.07-5.3-18.59-9.67-10.31-8.16-9.37-17.3,2.17-23.67,1.31-.72,2.75-1.19,4.14-1.78,.72,.68,1.44,1.36,2.16,2.04h-.21c-.5,.53-.99,1.07-1.49,1.6Z"/><path class="i" d="M566.85,641.44c6.4,3.94,2.08,7.03-1.09,9.57-8.93,7.15-19.68,9.66-30.73,10.83-20.27,2.15-40.49,2.11-60.33-3.31-6.66-1.82-13.24-4.21-17.58-12.84,16.39,6.3,32.05,7.54,47.71,7.74,17.97,.24,36.04,.37,53.49-5.16,3.26-1.03,6.99-1.74,7.76-6.07,.26-.25,.52-.51,.78-.77Z"/><path class="i" d="M369.42,643.72c-.72-.68-1.44-1.36-2.16-2.04,4.33-3.5,9.45-4.82,15.27-4.6-4.37,2.22-8.74,4.43-13.11,6.65Z"/><path class="i" d="M729.08,644.98c.04,.97,.08,1.94,.11,2.91-4.28-.94-7.27-3.99-12.52-7.19,5.83,.7,9.66,.91,12.41,4.28Z"/><path class="i" d="M733.78,652.39c.74,.32,2.8-.28,1.19,1.69-.4-.56-.79-1.13-1.19-1.69Z"/><path class="i" d="M566.08,642.21c-.23-.34-.74-.84-.66-.98,.56-.9,.99-.22,1.43,.22-.25,.26-.51,.51-.77,.76Z"/><path class="i" d="M367.72,645.32c.49-.53,.99-1.07,1.49-1.6-.49,.53-.99,1.07-1.49,1.6Z"/><path class="i" d="M729.19,647.89c.51,.49,1.02,.98,1.54,1.46-.51-.49-1.02-.98-1.54-1.46Z"/><path class="f" d="M0,538.66c19.28-5.57,37.19-6.75,54.79-9.34,57.73-8.49,115.57-16.22,173.37-24.25,.34-.05,.68-.11,1.02-.16q16.8-2.61,15.8,14.52c-.89,15.22-.56,30.42,.76,45.6,.56,6.39-1.07,8.24-8.06,7.24-57.77-8.31-115.62-16.12-173.43-24.18-20.78-2.9-41.51-6.07-64.26-9.41Z"/><text class="p" transform="translate(1028.69 365)"><tspan class="l" x="0" y="0">D</tspan><tspan class="r" x="391.2" y="0">A</tspan><tspan class="k" x="764.8" y="0">YFO</tspan><tspan class="c" x="1924.79" y="0">O</tspan><tspan class="l" x="2358.79" y="0">T</tspan></text><text class="j" transform="translate(1028.69 729.25)"><tspan class="m" x="0" y="0">P</tspan><tspan class="q" x="247.2" y="0">o</tspan><tspan class="o" x="511.6" y="0">o</tspan><tspan x="775.2" y="0">l</tspan><tspan class="d" x="893.99" y="0"> </tspan><tspan x="995.2" y="0">S</tspan><tspan class="n" x="1264" y="0">e</tspan><tspan class="q" x="1504.4" y="0">rvice</tspan></text></g></svg>